<?xml version="1.0" encoding="utf-8"?>
<!-- Generator: Adobe Illustrator 17.0.0, SVG Export Plug-In . SVG Version: 6.00 Build 0)  -->
<!DOCTYPE svg PUBLIC "-//W3C//DTD SVG 1.1//EN" "http://www.w3.org/Graphics/SVG/1.1/DTD/svg11.dtd">
<svg version="1.1" id="Layer_1" xmlns="http://www.w3.org/2000/svg" xmlns:xlink="http://www.w3.org/1999/xlink" x="0px" y="0px"
	 width="616.91px" height="541px" viewBox="0 0 616.91 541" enable-background="new 0 0 616.91 541" xml:space="preserve">
<g>
	<g>
		<path fill="#DEDEDD" d="M101.658,361.58c-0.384,0-0.768-0.147-1.061-0.44c-0.586-0.586-0.586-1.535,0-2.121l11.785-11.785
			c0.586-0.586,1.535-0.586,2.121,0c0.586,0.586,0.586,1.535,0,2.121l-11.785,11.785C102.426,361.433,102.042,361.58,101.658,361.58
			z"/>
		<path fill="#DEDEDD" d="M113.444,361.58c-0.384,0-0.768-0.147-1.06-0.44l-11.785-11.785c-0.586-0.586-0.586-1.535,0-2.121
			s1.535-0.586,2.121,0l11.785,11.785c0.586,0.586,0.586,1.535,0,2.121C114.211,361.433,113.827,361.58,113.444,361.58z"/>
	</g>
	<g>
		<linearGradient id="SVGID_1_" gradientUnits="userSpaceOnUse" x1="-5.1564" y1="270.5" x2="730.0602" y2="270.5">
			<stop  offset="0" style="stop-color:#58B9CB"/>
			<stop  offset="0.3293" style="stop-color:#4BA9BB"/>
			<stop  offset="1" style="stop-color:#318EA0"/>
		</linearGradient>
		<path fill="url(#SVGID_1_)" d="M616.91,528.936c0,6.664-3.37,12.065-7.528,12.065H7.528C3.37,541.001,0,535.599,0,528.936V12.064
			C0,5.401,3.37-0.001,7.528-0.001h601.854c4.158,0,7.528,5.402,7.528,12.065V528.936z"/>
	</g>
	<g>
		<g>
			<polygon fill="#2D3B46" points="323.522,138.707 352.387,181.083 405.698,190.218 376.313,146.827 			"/>
			<polygon fill="#2D3B46" points="323.522,138.707 322.741,139.468 404.917,190.98 405.698,190.218 			"/>
			<polygon fill="#1D262D" points="322.741,139.468 351.607,181.845 404.917,190.98 375.532,147.588 			"/>
			<path fill="#2D3B46" d="M383.334,178.036l-5.781,9.226l-7.739,12.347l-39.788-25.38c0.321-0.724,5.602-7.963,9.822-13.703
				c2.879-3.898,5.259-7.102,5.259-7.102C362.784,153.653,375.556,161.806,383.334,178.036z"/>
			<path fill="#425767" d="M353.522,154.203c-2.67-0.478-5.473-0.741-8.416-0.778c0,0-2.38,3.204-5.259,7.102
				c-4.22,5.74-9.501,12.979-9.822,13.703l6.555,4.181C341.976,170.28,347.451,161.873,353.522,154.203z"/>
			<path opacity="0.49" fill="#788B9B" d="M383.334,178.036l-5.781,9.226c-0.023-0.069-0.047-0.145-0.071-0.214
				c-7.802-25.38-37.579-26.141-37.579-26.141l-0.055-0.38c2.879-3.898,5.259-7.102,5.259-7.102
				C362.784,153.653,375.556,161.806,383.334,178.036z"/>
		</g>
		<g>
			<g>
				<path fill="#788B9B" d="M325.417,325.848h-12.112c-4.466,0-8.085-3.532-8.085-7.889v-10.94c0-4.357,3.62-7.889,8.085-7.889
					h12.112c4.465,0,8.085,3.533,8.085,7.889v10.94C333.502,322.316,329.883,325.848,325.417,325.848z"/>
				<path fill="#A5B8C6" d="M332.959,321.162h-27.195c-3.447,0-6.242-2.726-6.242-6.091v-25.303c0-3.364,2.794-6.09,6.242-6.09
					h27.195c3.447,0,6.241,2.726,6.241,6.09v25.303C339.2,318.436,336.405,321.162,332.959,321.162z"/>
				<path fill="#A7D3F1" d="M375.803,223.344c0-31.282-26.728-56.472-59.115-55.015c-28.762,1.295-52.168,23.97-53.688,52.025
					c-1.271,23.46,12.519,43.915,32.773,53.022v14.577c0,3.631,3.017,6.577,6.739,6.577h33.698c3.721,0,6.738-2.945,6.738-6.577
					v-14.577C362.337,264.658,375.803,245.541,375.803,223.344z"/>
			</g>
			<path opacity="0.54" fill="#FEE635" d="M339.45,275.605v12.37c0,0-0.585,3.425-5.656,3.425c-5.071,0-12.482,0-12.482,0
				S335.549,287.976,339.45,275.605z"/>
			<path opacity="0.54" fill="#FEE635" d="M341.458,178.243c-25.197-11.437-55.126-0.777-66.848,23.811
				C295.308,184.895,317.725,177.74,341.458,178.243"/>
			
				<text transform="matrix(1.0248 0 0 1 295.9407 263.3654)" display="none" fill="#FFFFFF" font-family="'Roboto-Regular'" font-size="101.6858">?</text>
		</g>
		<g>
			<rect x="301.157" y="296.923" fill="#788B9B" width="35.172" height="0.628"/>
			<rect x="301.157" y="299.207" fill="#788B9B" width="35.172" height="0.629"/>
			<rect x="301.157" y="301.49" fill="#788B9B" width="35.172" height="0.629"/>
			<rect x="301.157" y="303.774" fill="#788B9B" width="35.172" height="0.629"/>
			<rect x="301.157" y="306.058" fill="#788B9B" width="35.172" height="0.629"/>
			<rect x="301.157" y="308.342" fill="#788B9B" width="35.172" height="0.629"/>
			<rect x="301.157" y="310.626" fill="#788B9B" width="35.172" height="0.629"/>
			<rect x="301.157" y="312.909" fill="#788B9B" width="35.172" height="0.629"/>
			<rect x="301.157" y="315.194" fill="#788B9B" width="35.172" height="0.629"/>
			<rect x="301.157" y="317.476" fill="#788B9B" width="35.172" height="0.629"/>
		</g>
		<path opacity="0.51" fill="#788B9B" d="M336.329,297.43v16.502c0,0.003,0,0.003,0,0.005c-0.003,0.063-0.232,4.298-5.266,4.298
			h-7.085c-0.073,0-0.131-0.056-0.131-0.127v-20.495c0-0.069,0.058-0.126,0.129-0.127l12.222-0.183
			C336.27,297.302,336.329,297.359,336.329,297.43z"/>
		<g>
			<g>
				<path fill="#E3D9D3" d="M370.657,341.875h-69.423c-0.753,0-1.363-0.596-1.363-1.33v-14.003c0-0.733,0.61-1.329,1.363-1.329
					h69.423c0.752,0,1.363,0.596,1.363,1.329v14.003C372.02,341.279,371.409,341.875,370.657,341.875z"/>
				<path fill="#E96D27" d="M372.217,327.874h-69.423c-0.752,0-1.363-0.596-1.363-1.332l0,0c0-0.733,0.611-1.329,1.363-1.329h69.423
					c0.753,0,1.363,0.596,1.363,1.329l0,0C373.58,327.278,372.97,327.874,372.217,327.874z"/>
				<path fill="#E96D27" d="M372.217,339.292h-69.423c-0.752,0-1.363-0.596-1.363-1.33l0,0c0-0.733,0.611-1.329,1.363-1.329h69.423
					c0.753,0,1.363,0.596,1.363,1.329l0,0C373.58,338.696,372.97,339.292,372.217,339.292z"/>
				<path fill="#D4D4CF" d="M384.225,382.942h-96.939c-0.753,0-1.363-0.596-1.363-1.33V367.61c0-0.734,0.61-1.33,1.363-1.33h96.939
					c0.753,0,1.363,0.596,1.363,1.33v14.001C385.588,382.346,384.977,382.942,384.225,382.942z"/>
				<path fill="#44759C" d="M386.543,368.097H286.311c-0.214,0-0.388-0.17-0.388-0.378v-1.06c0-0.209,0.174-0.378,0.388-0.378
					h100.232c0.214,0,0.387,0.17,0.387,0.378v1.06C386.93,367.927,386.757,368.097,386.543,368.097z"/>
				<path fill="#44759C" d="M386.543,382.815H286.311c-0.214,0-0.388-0.17-0.388-0.378v-1.06c0-0.209,0.174-0.379,0.388-0.379
					h100.232c0.214,0,0.387,0.17,0.387,0.379v1.06C386.93,382.645,386.757,382.815,386.543,382.815z"/>
				<path fill="#E3D9D3" d="M377.631,351.497H294.02c-0.753,0-1.363-0.596-1.363-1.33v-6.962c0-0.734,0.61-1.33,1.363-1.33h83.612
					c0.753,0,1.363,0.596,1.363,1.33v6.962C378.994,350.901,378.384,351.497,377.631,351.497z"/>
				<path fill="#E65026" d="M379.298,343.357h-85.385c-0.263,0-0.476-0.209-0.476-0.465v-0.552c0-0.257,0.213-0.465,0.476-0.465
					h85.385c0.263,0,0.476,0.208,0.476,0.465v0.552C379.774,343.148,379.561,343.357,379.298,343.357z"/>
				<path fill="#E65026" d="M379.298,351.477h-85.385c-0.263,0-0.476-0.209-0.476-0.465v-0.551c0-0.258,0.213-0.466,0.476-0.466
					h85.385c0.263,0,0.476,0.208,0.476,0.466v0.551C379.774,351.269,379.561,351.477,379.298,351.477z"/>
				<path fill="#D4D4CF" d="M377.527,339.215h-82.682c-0.19,0-0.344,0.151-0.344,0.336v1.987c0,0.185,0.154,0.337,0.344,0.337
					h82.682c0.192,0,0.345-0.152,0.345-0.337v-1.987C377.872,339.366,377.718,339.215,377.527,339.215z"/>
				<path fill="#E3D9D3" d="M379.154,366.28h-82.971c-0.752,0-1.363-0.595-1.363-1.33v-10.495c0-0.734,0.611-1.33,1.363-1.33h82.971
					c0.752,0,1.363,0.596,1.363,1.33v10.495C380.517,365.685,379.907,366.28,379.154,366.28z"/>
				<path fill="#43999C" d="M380.277,366.28h-84.093c-0.752,0-1.363-0.595-1.363-1.33l0,0c0-0.734,0.611-1.33,1.363-1.33h84.093
					c0.752,0,1.363,0.596,1.363,1.33l0,0C381.64,365.685,381.029,366.28,380.277,366.28z"/>
				<path fill="#43999C" d="M380.277,354.157h-84.093c-0.752,0-1.363-0.596-1.363-1.33l0,0c0-0.735,0.611-1.33,1.363-1.33h84.093
					c0.752,0,1.363,0.594,1.363,1.33l0,0C381.64,353.56,381.029,354.157,380.277,354.157z"/>
			</g>
			<g>
				<path fill="#E96D27" d="M336.525,341.875h-69.422c-0.753,0-1.364-0.596-1.364-1.33v-14.003c0-0.733,0.611-1.329,1.364-1.329
					h69.422c0.753,0,1.363,0.596,1.363,1.329v14.003C337.888,341.279,337.278,341.875,336.525,341.875z"/>
				<path fill="#44759C" d="M351.436,382.942h-98.282c-0.753,0-1.363-0.596-1.363-1.33V367.61c0-0.734,0.61-1.33,1.363-1.33h98.282
					c0.753,0,1.363,0.596,1.363,1.33v14.001C352.799,382.346,352.189,382.942,351.436,382.942z"/>
				<path fill="#E65026" d="M343.5,351.497h-83.612c-0.752,0-1.363-0.596-1.363-1.33v-6.962c0-0.734,0.611-1.33,1.363-1.33H343.5
					c0.753,0,1.363,0.596,1.363,1.33v6.962C344.863,350.901,344.253,351.497,343.5,351.497z"/>
				<path fill="#43999C" d="M343.038,339.215h-81.967c-0.388,0-0.703,0.307-0.703,0.685v1.289c0,0.379,0.315,0.686,0.703,0.686
					h81.967c0.387,0,0.702-0.307,0.702-0.686V339.9C343.74,339.522,343.425,339.215,343.038,339.215z"/>
				<path fill="#43999C" d="M346.145,366.28h-84.093c-0.753,0-1.363-0.595-1.363-1.33v-12.124c0-0.735,0.61-1.33,1.363-1.33h84.093
					c0.753,0,1.363,0.594,1.363,1.33v12.124C347.508,365.685,346.898,366.28,346.145,366.28z"/>
				<rect x="263.981" y="341.929" fill="#E96D27" width="3.998" height="9.42"/>
				<rect x="267.394" y="351.349" fill="#FFFFFF" width="8.582" height="14.845"/>
				<rect x="280.464" y="354.014" fill="#FFFFFF" width="0.645" height="9.897"/>
				<rect x="260.243" y="374.766" fill="#FFFFFF" width="73.204" height="1.887"/>
				<rect x="271.363" y="344.371" fill="#FFFFFF" width="0.645" height="3.806"/>
				<rect x="267.728" y="339.17" fill="#EFD431" width="1.934" height="2.665"/>
				<rect x="272.278" y="325.34" fill="#EFD431" width="1.934" height="13.576"/>
			</g>
			<rect x="280.267" y="331.629" fill="#FFFFFF" width="46.42" height="1.886"/>
		</g>
		<g>
			<g>
				<path fill="#212A42" d="M399.409,350.57l-4.815,1.142l-4.553,5.714l6.828,1.714c0,0,4.799,1.068,4.88-1.207
					C401.78,357.059,401.23,353.881,399.409,350.57z"/>
			</g>
			<path fill="#3E8B8D" d="M397.021,345.844c-1.114,0.765-2.202,1.342-3.411,1.842c-1.191,0.489-2.49,0.846-3.87,0.862
				c-0.343,0.001-0.697-0.033-1.04-0.084c-0.344-0.077-0.708-0.151-0.981-0.254c-0.587-0.19-1.167-0.404-1.74-0.634
				c-1.147-0.468-2.248-0.98-3.311-1.68c-0.179-0.116-0.226-0.353-0.106-0.527c0.111-0.161,0.327-0.213,0.499-0.126l0.029,0.013
				c1.013,0.502,2.16,0.883,3.288,1.189c0.569,0.152,1.141,0.286,1.72,0.4c0.304,0.074,0.54,0.076,0.789,0.107
				c0.254,0.002,0.508-0.001,0.766-0.033c1.031-0.14,2.067-0.546,3.036-1.092c0.958-0.534,1.924-1.219,2.703-1.912l0.025-0.023
				c0.525-0.467,1.338-0.431,1.816,0.082c0.479,0.511,0.441,1.304-0.084,1.771C397.11,345.779,397.063,345.814,397.021,345.844z"/>
			<g>
				<path fill="#43999C" d="M400.228,346.848c-0.142-1.005-0.136-2.044-0.092-3.072c-0.112,0.013-0.228,0.011-0.35-0.021
					c-0.553-0.15-0.867-0.824-0.548-1.316c0.002-0.002,0,0.005,0.001,0.004c0.005-0.011,0.01-0.021,0.014-0.031l-1.145,0.079
					c0,0-3.543,2.346-3.859,4.08c-0.238,1.299,0.074,3.54,0.244,4.582c1.01-0.197,2.096-0.287,3.096-0.265
					c0.005,0,0.01,0.003,0.015,0.003c0.025-0.216,0.087-0.428,0.207-0.638c0.21-0.366,0.573-0.811,1.014-0.894
					c0.232-0.043,0.48,0.03,0.649,0.176c0.179-0.087,0.371-0.109,0.547-0.068l0.464-2.193
					C400.351,347.182,400.255,347.043,400.228,346.848z"/>
			</g>
			<g>
				<rect x="397.681" y="336.732" fill="#FECE89" width="2.041" height="7.617"/>
			</g>
			<path fill="#FECE89" d="M395.552,336.24c-0.523,1.951-0.081,3.754,1.92,4.264c2,0.509,4.043-0.658,4.567-2.609
				c0.523-1.952-0.675-3.947-2.675-4.457C397.364,332.927,396.074,334.289,395.552,336.24z"/>
			<path fill="#212A42" d="M397.458,340.199c0,0,2.924-4.084,2.721-4.136c-0.958-0.245-4.794-1.222-4.794-1.222
				s1.873-3.731,6.707-1.106c3.02,1.641,3.48,6.107,1.833,7.641C402.937,342.298,397.458,340.199,397.458,340.199z"/>
			<path fill="#212A42" d="M394.307,358.153l-11.981-3.043l1.302-1.16l0.712,11.567c0.012,0.195-0.139,0.361-0.338,0.372
				c-0.184,0.011-0.344-0.114-0.376-0.287l-2.147-11.398c-0.103-0.549,0.269-1.076,0.831-1.177c0.121-0.021,0.243-0.021,0.358-0.003
				l0.114,0.02l12.203,2.033c0.878,0.146,1.469,0.959,1.319,1.816c-0.15,0.857-0.983,1.433-1.861,1.287
				C394.397,358.174,394.35,358.164,394.307,358.153z"/>
			<path fill="#212A42" d="M399.759,356.581l0.008,1.717c-0.002,0.585,0.019,1.111,0.031,1.662l0.069,3.286l0.158,6.883
				l-0.113-0.443l4.901,12.144c0.079,0.195-0.019,0.415-0.219,0.491c-0.184,0.071-0.39-0.005-0.482-0.17l-6.411-11.455
				c-0.062-0.11-0.096-0.226-0.106-0.344l-0.008-0.1l-0.55-6.879l-0.261-3.596l-0.224-3.507c-0.056-0.863,0.617-1.606,1.5-1.66
				c0.884-0.054,1.646,0.602,1.701,1.465c0.002,0.028,0.003,0.057,0.003,0.085L399.759,356.581z"/>
			<path fill="#43999C" d="M401.418,343.155c0.965,1.49,1.855,2.97,2.675,4.548c0.405,0.793,0.793,1.592,1.095,2.516
				c0.073,0.237,0.142,0.475,0.186,0.761c0.036,0.279,0.104,0.592-0.065,1.109c-0.079,0.245-0.319,0.571-0.632,0.73
				c-0.239,0.112-0.369,0.121-0.562,0.173c-0.334,0.062-0.55,0.045-0.822,0.062c-1.9-0.067-3.592-0.409-5.335-0.725
				c-1.728-0.336-3.436-0.708-5.144-1.112c-0.209-0.049-0.338-0.255-0.287-0.46c0.047-0.192,0.243-0.315,0.44-0.287
				c1.72,0.245,3.453,0.461,5.179,0.635c1.712,0.157,3.49,0.329,5.087,0.235c0.16-0.026,0.389-0.042,0.478-0.078
				c0.015-0.013,0.107-0.037,0.061-0.016c-0.128,0.051-0.219,0.202-0.239,0.243c-0.035,0.11-0.015-0.02-0.065-0.154
				c-0.034-0.132-0.099-0.302-0.168-0.467c-0.296-0.679-0.722-1.397-1.165-2.091c-0.899-1.39-1.915-2.769-2.949-4.076l-0.012-0.014
				c-0.461-0.584-0.351-1.425,0.249-1.875c0.599-0.451,1.459-0.344,1.922,0.242C401.369,343.085,401.395,343.121,401.418,343.155z"
				/>
			<path fill="#43999C" d="M398.757,342.405c1.337,0,2.731,0.713,2.731,2.902c0,2.189-2.079,5.262-2.079,5.262h-3.919l1.121-6.499
				L398.757,342.405z"/>
			<path fill="#3E8B8D" d="M400.147,342.524l-0.439-0.904l-1.682,0.69c0,0-0.756,1.594-0.683,1.57
				C397.416,343.856,400.147,342.524,400.147,342.524z"/>
			<polygon fill="#3E8B8D" points="397.636,342.239 397.124,342.31 396.075,343.785 396.563,343.642 397.66,342.786 			"/>
			<polygon fill="#43999C" points="399.409,350.57 394.594,351.712 394.32,349.78 399.903,349.66 			"/>
			<path fill="#43999C" d="M384.829,366.131c0-0.19-0.195-2.919-0.195-2.919l-2.601-0.064l1.104,2.284c0,0-0.91,0.19-0.975,0.698
				C382.098,366.638,384.829,366.131,384.829,366.131z"/>
			<path fill="#43999C" d="M405.177,381.419c0,0-0.454-1.902-0.649-1.84c-0.195,0.064-2.601,0.888-2.601,0.888l2.146,2.411
				c0,0-1.105,0.254-1.169,0.698c-0.066,0.445,2.535,0,2.535,0L405.177,381.419z"/>
			<path fill="#FECE89" d="M393.199,350.493l-0.097,0.856l-2,0.191c0,0-0.292-1.856,0.586-1.665
				C392.565,350.066,393.199,350.493,393.199,350.493z"/>
			<path fill="#FECE89" d="M382.668,345.896c-0.343,0.03-1.902-1.017-1.902-1.017s0.487-1.808,1.414-1.286
				c0.926,0.524,0.91,1.663,0.91,1.663L382.668,345.896z"/>
			<path fill="#FECE89" d="M395.552,336.24c-0.208,0.17-1.33,0.789-1.33,0.789l1.512,0.951l0.487-1.665L395.552,336.24z"/>
		</g>
		<g>
			<path fill="#CF6128" d="M287.759,304.403c0.842,0.766,1.665,1.343,2.58,1.842c0.901,0.489,1.883,0.845,2.927,0.862
				c0.259,0.001,0.526-0.034,0.787-0.083c0.26-0.077,0.535-0.151,0.742-0.255c0.444-0.19,0.883-0.402,1.316-0.633
				c0.868-0.468,1.7-0.979,2.504-1.679c0.135-0.118,0.171-0.354,0.08-0.527c-0.084-0.161-0.247-0.213-0.378-0.128l-0.021,0.015
				c-0.767,0.501-1.634,0.883-2.487,1.189c-0.431,0.152-0.864,0.287-1.301,0.4c-0.23,0.073-0.408,0.077-0.597,0.107
				c-0.191,0.003-0.384-0.001-0.578-0.033c-0.781-0.14-1.563-0.544-2.296-1.092c-0.725-0.534-1.455-1.219-2.044-1.913l-0.02-0.023
				c-0.397-0.467-1.011-0.431-1.373,0.081c-0.361,0.511-0.333,1.306,0.064,1.772C287.692,304.338,287.727,304.373,287.759,304.403z"
				/>
			<g>
				<path fill="#E96D27" d="M285.466,305.93c0.141-1.005,0.135-2.043,0.091-3.072c0.111,0.014,0.227,0.011,0.349-0.021
					c0.555-0.15,0.868-0.824,0.549-1.316c-0.002-0.003,0,0.004,0,0.003c-0.005-0.011-0.01-0.019-0.014-0.03l1.145,0.079
					c0,0,1.982,0.823,2.299,2.558c0.238,1.299,1.487,5.062,1.316,6.103c-1.01-0.197-2.095-0.287-3.095-0.265
					c-0.006,0-0.01,0.003-0.015,0.003c-0.026-0.217-0.088-0.428-0.207-0.637c-0.21-0.367-0.573-0.812-1.015-0.894
					c-0.231-0.044-0.479,0.03-0.648,0.175c-0.181-0.087-0.371-0.109-0.548-0.068l-0.464-2.193
					C285.341,306.265,285.438,306.126,285.466,305.93z"/>
			</g>
			<g>
				<rect x="285.971" y="295.815" fill="#FECE89" width="2.042" height="7.617"/>
			</g>
			<path fill="#FECE89" d="M290.141,295.322c0.522,1.951,0.08,3.754-1.92,4.264c-2,0.51-4.045-0.658-4.568-2.61
				c-0.522-1.951,0.675-3.946,2.674-4.456C288.328,292.01,289.618,293.372,290.141,295.322z"/>
			<path fill="#212A42" d="M288.788,319.521c0.098-0.143,3.949-2.998,3.949-2.998l-0.926-0.476l-3.17-1.997l-1.561,2.569
				l1.804,2.712"/>
			<path fill="#212A42" d="M288.173,314.161l12.204-2.033l0.11-0.019c0.564-0.094,1.099,0.276,1.195,0.826
				c0.021,0.119,0.019,0.241-0.002,0.354l-2.148,11.397c-0.036,0.191-0.224,0.318-0.42,0.282c-0.181-0.032-0.306-0.192-0.295-0.367
				l0.714-11.568l1.302,1.161l-11.981,3.043c-0.862,0.219-1.743-0.285-1.968-1.127c-0.224-0.841,0.293-1.7,1.155-1.919
				C288.082,314.178,288.129,314.168,288.173,314.161z"/>
			<path fill="#212A42" d="M289.138,315.325c0,0.183-0.007,0.888-0.032,1.074l-0.059,0.843l-0.126,1.673l-0.265,3.337l-0.549,6.666
				l-0.008,0.099c-0.011,0.128-0.052,0.25-0.111,0.356l-6.408,11.086c-0.105,0.182-0.342,0.247-0.529,0.144
				c-0.172-0.095-0.241-0.298-0.169-0.472l4.906-11.794l-0.119,0.454l0.158-6.678l0.07-3.336l0.028-1.664l0.01-0.826
				c-0.008-0.371,0.02-0.223,0.002-0.596l-0.014-0.298c-0.039-0.865,0.648-1.598,1.535-1.637c0.887-0.039,1.638,0.632,1.678,1.497
				C289.137,315.276,289.138,315.303,289.138,315.325z"/>
			<path fill="#E96D27" d="M285.251,302.143c-0.965,1.49-1.855,2.97-2.676,4.549c-0.405,0.793-0.794,1.591-1.095,2.514
				c-0.072,0.237-0.142,0.475-0.186,0.763c-0.035,0.279-0.103,0.592,0.065,1.108c0.079,0.245,0.317,0.571,0.633,0.731
				c0.239,0.111,0.37,0.12,0.561,0.172c0.335,0.062,0.549,0.045,0.822,0.062c1.9-0.068,3.592-0.409,5.334-0.726
				c1.727-0.336,3.437-0.707,5.145-1.112c0.21-0.05,0.338-0.255,0.288-0.461c-0.048-0.193-0.243-0.315-0.44-0.287
				c-1.721,0.245-3.453,0.461-5.18,0.636c-1.712,0.156-3.49,0.328-5.087,0.235c-0.161-0.027-0.388-0.043-0.476-0.079
				c-0.015-0.012-0.107-0.036-0.061-0.015c0.127,0.051,0.219,0.201,0.239,0.243c0.036,0.109,0.015-0.02,0.065-0.154
				c0.033-0.132,0.099-0.301,0.168-0.467c0.295-0.679,0.721-1.396,1.166-2.091c0.898-1.39,1.915-2.768,2.948-4.075l0.011-0.014
				c0.462-0.584,0.351-1.425-0.248-1.875c-0.599-0.451-1.459-0.343-1.922,0.242C285.298,302.073,285.273,302.109,285.251,302.143z"
				/>
			<path fill="#E96D27" d="M286.936,301.488c-1.336,0-2.731,0.713-2.731,2.902c0,2.189,2.08,5.263,2.08,5.263h3.918l-1.121-6.5
				L286.936,301.488z"/>
			<path fill="#E65026" d="M300.02,324.516l0.047-0.098c-0.564-0.001-1.128,0.018-1.692,0.025c-0.027,0.398-0.046,0.71-0.046,0.769
				c0,0,2.73,0.507,2.666,0C300.93,324.707,300.02,324.516,300.02,324.516z"/>
			<path fill="#E65026" d="M281.621,341.156l0.193-0.21c-0.464-0.096-0.915-0.213-1.359-0.359c-0.015-0.001-0.029-0.004-0.043-0.006
				l-0.156,1.253c0,0,2.601,0.43,2.536,0C282.726,341.402,281.621,341.156,281.621,341.156z"/>
			<path fill="#FECE89" d="M293.469,309.481l0.098,0.856l1.999,0.191c0,0,0.293-1.856-0.585-1.665
				C294.103,309.053,293.469,309.481,293.469,309.481z"/>
			<path fill="#FECE89" d="M298.613,304.457c0.259,0.029,1.439-1.019,1.439-1.019s-0.369-1.808-1.069-1.284
				c-0.701,0.523-0.688,1.663-0.688,1.663L298.613,304.457z"/>
			<path fill="#FECE89" d="M290.141,295.37c0.208,0.17,1.329,0.789,1.329,0.789l-1.511,0.953l-0.487-1.665L290.141,295.37z"/>
			<path fill="#212A42" d="M283.409,293.622c0,0,2.145-2.094,4.876-1.587c2.731,0.508,0.845,2.538-0.13,3.362
				c-0.976,0.824-3.381,3.427-3.381,3.427S280.874,296.096,283.409,293.622z"/>
			<path fill="#212A42" d="M285.863,299.49c0.137,0.049,0.341-4.9,0.341-4.9l-3.218,2.188
				C282.986,296.777,283.62,298.681,285.863,299.49z"/>
			<path fill="#E96D27" d="M284.595,305.722c0.049,0.115,0.243,9.012,0.243,9.012s2.536,0.23,4.779-0.114
				c2.243-0.346,3.169-1.227,3.169-1.227l-2.145-6.213L284.595,305.722z"/>
			<polygon fill="#E96D27" points="285.815,301.631 285.912,300.584 288.252,300.965 288.204,302.915 286.058,302.154 			"/>
		</g>
	</g>
	<path fill="#565251" d="M480.071,309.119l0.172,4.311c-1.74,0.454-3.35,1.215-4.778,2.217l-3.177-2.933
		c-1.293-1.194-3.31-1.114-4.503,0.18c-1.194,1.292-1.114,3.31,0.18,4.504l3.177,2.933c-0.885,1.504-1.516,3.169-1.83,4.941
		l-4.31,0.172c-1.759,0.07-3.128,1.553-3.058,3.312c0.07,1.759,1.554,3.128,3.313,3.058l4.31-0.172
		c0.454,1.741,1.216,3.351,2.218,4.779l-2.933,3.177c-1.195,1.293-1.114,3.31,0.18,4.504c1.293,1.194,3.31,1.114,4.504-0.18
		l2.933-3.177c1.504,0.885,3.169,1.516,4.94,1.829l0.172,4.311c0.07,1.759,1.553,3.128,3.312,3.058
		c1.759-0.07,3.128-1.553,3.058-3.312l-0.172-4.31c1.741-0.454,3.351-1.215,4.779-2.217l3.178,2.934
		c1.292,1.194,3.31,1.114,4.503-0.18c0.597-0.647,0.876-1.474,0.843-2.289c-0.033-0.815-0.376-1.618-1.023-2.214l-3.178-2.934
		c0.885-1.504,1.516-3.169,1.83-4.941l4.31-0.172c1.759-0.07,3.128-1.553,3.058-3.312c-0.07-1.759-1.554-3.128-3.313-3.058
		l-4.31,0.172c-0.454-1.741-1.216-3.35-2.217-4.778l2.933-3.178c0.597-0.646,0.876-1.474,0.843-2.289
		c-0.033-0.815-0.376-1.618-1.023-2.215c-1.293-1.194-3.311-1.113-4.504,0.181l-2.934,3.177c-1.504-0.885-3.169-1.516-4.94-1.829
		l-0.172-4.311c-0.07-1.759-1.553-3.128-3.312-3.058C481.37,305.877,480,307.36,480.071,309.119z M487.511,335.678l-0.004-0.087
		c-0.567,0.269-1.157,0.477-1.754,0.653c-0.456,0.095-0.922,0.163-1.403,0.182c-4.716,0.188-8.706-3.495-8.894-8.211
		c-0.188-4.716,3.495-8.705,8.211-8.894c4.716-0.188,8.706,3.495,8.894,8.21c0.111,2.779-1.129,5.299-3.126,6.944
		c-0.004,0-0.007,0-0.011,0c-0.573,0.405-1.182,0.757-1.811,1.063l0.069,0.064C487.627,335.63,487.568,335.652,487.511,335.678z"/>
	<g>
		<path fill="#6B6162" d="M138.104,164.098l2.164,5.696c-2.128,1.388-3.942,3.13-5.406,5.112l-5.57-2.504
			c-2.268-1.02-4.933-0.007-5.952,2.26c-1.019,2.267-0.008,4.933,2.261,5.952l5.57,2.503c-0.511,2.411-0.609,4.924-0.235,7.438
			l-5.696,2.164c-2.324,0.883-3.493,3.483-2.61,5.807c0.883,2.325,3.483,3.493,5.807,2.61l5.696-2.164
			c1.388,2.128,3.131,3.942,5.114,5.406l-2.504,5.571c-1.02,2.267-0.007,4.932,2.261,5.952c2.267,1.02,4.933,0.007,5.951-2.261
			l2.504-5.571c2.411,0.51,4.924,0.609,7.436,0.234L157.06,214c0.883,2.325,3.483,3.493,5.807,2.61
			c2.324-0.883,3.493-3.483,2.61-5.808l-2.164-5.695c2.128-1.389,3.942-3.131,5.406-5.113l5.571,2.504
			c2.267,1.02,4.933,0.007,5.952-2.26c0.509-1.134,0.512-2.367,0.102-3.445c-0.409-1.077-1.229-1.998-2.363-2.507l-5.571-2.504
			c0.511-2.411,0.609-4.924,0.235-7.438l5.696-2.163c2.324-0.883,3.493-3.483,2.61-5.808c-0.883-2.324-3.483-3.493-5.807-2.61
			l-5.696,2.164c-1.388-2.128-3.13-3.941-5.113-5.406l2.504-5.571c0.51-1.133,0.512-2.367,0.103-3.444
			c-0.409-1.077-1.229-1.998-2.363-2.508c-2.267-1.02-4.933-0.007-5.951,2.261l-2.504,5.571c-2.411-0.511-4.924-0.609-7.438-0.235
			l-2.164-5.696c-0.883-2.324-3.483-3.493-5.807-2.61C138.39,159.173,137.221,161.773,138.104,164.098z M159.98,196.332
			l-0.043-0.115c-0.64,0.615-1.337,1.157-2.057,1.661c-0.568,0.331-1.162,0.632-1.797,0.874c-6.232,2.367-13.227-0.777-15.594-7.009
			c-2.367-6.231,0.777-13.227,7.009-15.593c6.232-2.367,13.227,0.776,15.594,7.008c1.395,3.672,0.864,7.604-1.073,10.703
			c-0.005,0.001-0.009,0.003-0.014,0.005c-0.586,0.799-1.244,1.544-1.949,2.235l0.121,0.054
			C160.113,196.215,160.044,196.272,159.98,196.332z"/>
		<path fill="#6B6162" d="M184.213,126.221l0.172,4.311c-1.74,0.454-3.35,1.215-4.778,2.217l-3.177-2.933
			c-1.293-1.194-3.31-1.114-4.503,0.18c-1.194,1.292-1.114,3.31,0.18,4.504l3.177,2.933c-0.885,1.504-1.516,3.169-1.83,4.941
			l-4.31,0.172c-1.759,0.07-3.128,1.553-3.058,3.312c0.07,1.759,1.554,3.128,3.313,3.058l4.31-0.172
			c0.454,1.741,1.216,3.351,2.218,4.779l-2.933,3.177c-1.195,1.293-1.114,3.31,0.18,4.504c1.293,1.194,3.31,1.114,4.504-0.18
			l2.933-3.177c1.504,0.885,3.169,1.516,4.94,1.829l0.172,4.311c0.07,1.759,1.553,3.128,3.312,3.058
			c1.759-0.07,3.128-1.553,3.058-3.312l-0.172-4.311c1.741-0.454,3.351-1.215,4.779-2.217l3.178,2.934
			c1.292,1.194,3.31,1.114,4.503-0.18c0.597-0.647,0.876-1.474,0.843-2.29c-0.033-0.815-0.376-1.618-1.023-2.214l-3.178-2.934
			c0.885-1.504,1.516-3.169,1.83-4.941l4.31-0.172c1.759-0.07,3.128-1.553,3.058-3.312c-0.07-1.759-1.554-3.128-3.313-3.058
			l-4.31,0.172c-0.454-1.741-1.216-3.35-2.217-4.778l2.933-3.178c0.597-0.646,0.876-1.474,0.843-2.289
			c-0.033-0.815-0.376-1.618-1.023-2.215c-1.293-1.194-3.311-1.113-4.504,0.181l-2.934,3.177c-1.504-0.885-3.169-1.516-4.94-1.829
			l-0.172-4.311c-0.07-1.759-1.553-3.128-3.312-3.058C185.512,122.979,184.143,124.461,184.213,126.221z M191.653,152.78
			l-0.003-0.087c-0.567,0.269-1.157,0.477-1.754,0.653c-0.456,0.095-0.922,0.163-1.403,0.182c-4.716,0.188-8.706-3.495-8.894-8.211
			c-0.188-4.716,3.495-8.705,8.211-8.894c4.716-0.188,8.706,3.495,8.894,8.21c0.111,2.779-1.129,5.299-3.126,6.944
			c-0.004,0-0.007,0.001-0.011,0c-0.573,0.405-1.182,0.757-1.811,1.063l0.069,0.064C191.769,152.731,191.71,152.754,191.653,152.78z
			"/>
	</g>
	<g>
		<path fill="#DEDEDD" d="M384.829,83.065c-0.829,0-1.5-0.672-1.5-1.5V64.898c0-0.828,0.671-1.5,1.5-1.5c0.829,0,1.5,0.672,1.5,1.5
			v16.667C386.329,82.393,385.657,83.065,384.829,83.065z"/>
		<path fill="#DEDEDD" d="M393.162,74.731h-16.667c-0.829,0-1.5-0.672-1.5-1.5c0-0.828,0.671-1.5,1.5-1.5h16.667
			c0.829,0,1.5,0.672,1.5,1.5C394.662,74.059,393.991,74.731,393.162,74.731z"/>
	</g>
	<g>
		<path fill="#DEDEDD" d="M88.718,91.399c-0.829,0-1.5-0.672-1.5-1.5V73.232c0-0.828,0.671-1.5,1.5-1.5c0.829,0,1.5,0.672,1.5,1.5
			v16.667C90.218,90.727,89.546,91.399,88.718,91.399z"/>
		<path fill="#DEDEDD" d="M97.051,83.065H80.384c-0.829,0-1.5-0.672-1.5-1.5c0-0.828,0.671-1.5,1.5-1.5h16.667
			c0.829,0,1.5,0.672,1.5,1.5C98.551,82.393,97.88,83.065,97.051,83.065z"/>
	</g>
	<g>
		<path fill="#DEDEDD" d="M515.913,251.066c-0.829,0-1.5-0.671-1.5-1.5v-16.666c0-0.829,0.671-1.5,1.5-1.5s1.5,0.671,1.5,1.5v16.666
			C517.413,250.394,516.742,251.066,515.913,251.066z"/>
		<path fill="#DEDEDD" d="M524.247,242.732H507.58c-0.829,0-1.5-0.671-1.5-1.5s0.671-1.5,1.5-1.5h16.667c0.829,0,1.5,0.671,1.5,1.5
			S525.075,242.732,524.247,242.732z"/>
	</g>
	<g>
		<path fill="#DEDEDD" d="M165.856,340.422c-0.828,0-1.5-0.671-1.5-1.5v-16.667c0-0.829,0.672-1.5,1.5-1.5
			c0.828,0,1.5,0.671,1.5,1.5v16.667C167.356,339.751,166.685,340.422,165.856,340.422z"/>
		<path fill="#DEDEDD" d="M174.19,332.088h-16.667c-0.828,0-1.5-0.671-1.5-1.5c0-0.829,0.672-1.5,1.5-1.5h16.667
			c0.828,0,1.5,0.671,1.5,1.5C175.69,331.417,175.019,332.088,174.19,332.088z"/>
	</g>
	<text transform="matrix(1 0 0 1 164.9201 441.3265)"><tspan x="0" y="0" fill="#FFFFFF" font-family="'SegoeUI'" font-size="14">Acesta este un slogan pentru aplicatia FII-Student.</tspan><tspan x="-88.112" y="16.8" fill="#FFFFFF" font-family="'SegoeUI'" font-size="14">Acesta este un altfel de slogan al acestei aplicatii, la care nu ne-am gandit inca.</tspan></text>
	<text transform="matrix(1 0 0 1 147.2832 493.4991)" fill="#FFFFFF" font-family="'SegoeUI'" font-size="12">Este bine de stiut ca aprobarea unui cont poate dura chiar si o zi!</text>
	<line fill="#FFFFFF" x1="148.216" y1="472.443" x2="491.19" y2="472.443"/>
</g>
</svg>
